<?xml version="1.0" encoding="UTF-8"?>
<svg xmlns="http://www.w3.org/2000/svg" viewBox="0 0 24 24">
    <path d="M12 2.25a9.72 9.72 0 0 0-6.894 2.856c-3.808 3.808-3.808 9.982 0 13.789s9.982 3.808 13.789 0a.75.75 0 0 0-1.061-1.061 8.25 8.25 0 1 1 0-11.668A8.22 8.22 0 0 1 20.25 12c0 .681-.21 1.272-.51 1.672s-.658.578-.99.578-.69-.177-.99-.578-.51-.99-.51-1.672V8.25a.75.75 0 0 0-1.5 0v.076a5.25 5.25 0 1 0 .82 6.26c.514.677 1.276 1.164 2.18 1.164.911 0 1.677-.495 2.191-1.18s.809-1.595.809-2.57a9.72 9.72 0 0 0-2.856-6.894A9.72 9.72 0 0 0 12 2.25m-.242 6.158a2.004 2.004 0 0 1 2.246 1.989 2.004 2.004 0 0 1-4.008 0 2.004 2.004 0 0 1 1.762-1.989M12 13.604a4 4 0 0 1 2.658 1.013 3.75 3.75 0 0 1-5.316 0A4 4 0 0 1 12 13.603"/>
</svg>
